<svg xmlns="http://www.w3.org/2000/svg" width="1800" height="980" viewBox="0 0 1800 980">
  <rect width="1800" height="980" fill="#0b1220"/>

  <rect x="60" y="60" width="1680" height="860" rx="22" ry="22" fill="#f2f6ff" stroke="#c2d2ea" stroke-width="4"/>
  <text x="100" y="140" fill="#0f1f33" font-size="52" font-family="Arial, sans-serif" font-weight="700">Dev Seat 12 Transaction History</text>

  <rect x="100" y="190" width="1600" height="670" rx="10" ry="10" fill="#ffffff" stroke="#d0dcef" stroke-width="3"/>
  <rect x="102" y="192" width="1596" height="84" fill="#e8f0ff"/>

  <text x="120" y="245" fill="#0a1729" font-size="28" font-family="Arial, sans-serif" font-weight="700">Time stamp</text>
  <text x="480" y="245" fill="#0a1729" font-size="28" font-family="Arial, sans-serif" font-weight="700">Sender</text>
  <text x="690" y="245" fill="#0a1729" font-size="28" font-family="Arial, sans-serif" font-weight="700">Recipient</text>
  <text x="930" y="245" fill="#0a1729" font-size="28" font-family="Arial, sans-serif" font-weight="700">Money Amount</text>
  <text x="1250" y="245" fill="#0a1729" font-size="28" font-family="Arial, sans-serif" font-weight="700">Item Name</text>
  <text x="1630" y="245" fill="#0a1729" font-size="28" font-family="Arial, sans-serif" font-weight="700">Transaction Type</text>

  <rect x="102" y="276" width="1596" height="86" fill="#ffffff"/>
  <rect x="102" y="362" width="1596" height="86" fill="#f6f9ff"/>
  <rect x="102" y="448" width="1596" height="86" fill="#ffffff"/>

  <line x1="100" y1="276" x2="1700" y2="276" stroke="#d0dcef" stroke-width="2"/>
  <line x1="100" y1="362" x2="1700" y2="362" stroke="#d0dcef" stroke-width="2"/>
  <line x1="100" y1="448" x2="1700" y2="448" stroke="#d0dcef" stroke-width="2"/>
  <line x1="100" y1="534" x2="1700" y2="534" stroke="#d0dcef" stroke-width="2"/>

  <text x="120" y="332" fill="#0f1f33" font-size="24" font-family="Arial, sans-serif">2026-03-27 4:22 AM</text>
  <text x="480" y="332" fill="#0f1f33" font-size="24" font-family="Arial, sans-serif">Dev Seat 10</text>
  <text x="690" y="332" fill="#0f1f33" font-size="24" font-family="Arial, sans-serif">Dev Seat 12</text>
  <text x="930" y="332" fill="#0f1f33" font-size="24" font-family="Arial, sans-serif">$150</text>
  <text x="1250" y="332" fill="#0f1f33" font-size="24" font-family="Arial, sans-serif">Handgun (Tier 1)</text>
  <text x="1630" y="332" fill="#0f1f33" font-size="24" font-family="Arial, sans-serif">Sale</text>

  <text x="120" y="418" fill="#0f1f33" font-size="24" font-family="Arial, sans-serif">2026-03-27 4:31 AM</text>
  <text x="480" y="418" fill="#0f1f33" font-size="24" font-family="Arial, sans-serif">Dev Seat 11</text>
  <text x="690" y="418" fill="#0f1f33" font-size="24" font-family="Arial, sans-serif">Dev Seat 12</text>
  <text x="930" y="418" fill="#0f1f33" font-size="24" font-family="Arial, sans-serif">$50</text>
  <text x="1250" y="418" fill="#0f1f33" font-size="24" font-family="Arial, sans-serif">Tier 3 Gun 1 (1 shot)</text>
  <text x="1630" y="418" fill="#0f1f33" font-size="24" font-family="Arial, sans-serif">Sale</text>

  <text x="120" y="504" fill="#0f1f33" font-size="24" font-family="Arial, sans-serif">2026-03-27 4:38 AM</text>
  <text x="480" y="504" fill="#0f1f33" font-size="24" font-family="Arial, sans-serif">Dev Seat 05</text>
  <text x="690" y="504" fill="#0f1f33" font-size="24" font-family="Arial, sans-serif">Dev Seat 12</text>
  <text x="930" y="504" fill="#0f1f33" font-size="24" font-family="Arial, sans-serif">$100</text>
  <text x="1250" y="504" fill="#0f1f33" font-size="24" font-family="Arial, sans-serif">-</text>
  <text x="1630" y="504" fill="#0f1f33" font-size="24" font-family="Arial, sans-serif">Money Gift</text>

  <text x="120" y="610" fill="#0f1f33" font-size="24" font-family="Arial, sans-serif">Dev Seat 12 has only had 3 total transactions.</text>
</svg>
